<svg xmlns="http://www.w3.org/2000/svg" width="24" height="24" viewBox="0 0 16 16">
  <path d="M 7.36 1.2 L 12.32 1.2 A 1.28 1.28 0 0 1 13.6 2.48 L 13.6 5.2 L 15.02 6.8 L 13.6 8.4 L 13.6 11.12 A 1.28 1.28 0 0 1 12.32 12.4 L 12.16 12.4" fill="none" stroke="currentColor" stroke-width="1.2" stroke-linecap="round" stroke-linejoin="round"/>
  <path d="M 8.96 12.4 L 7.2 12.4 L 4.8 15 L 4.8 12.4 L 3.68 12.4 A 1.28 1.28 0 0 1 2.4 11.12 L 2.4 8.4 L 0.98 6.8 L 2.4 5.2 L 2.4 2.48 A 1.28 1.28 0 0 1 3.68 1.2 L 3.84 1.2" fill="none" stroke="currentColor" stroke-width="1.2" stroke-linecap="round" stroke-linejoin="round"/>

  <!-- 左上角 1/4 区域的 > 符号 -->
  <path d="M 4.8 2.8 L 6.72 4.4 L 4.8 6" fill="none" stroke="currentColor" stroke-width="1.2" stroke-linecap="round" stroke-linejoin="round"/>
  
  <!-- 从 > 右侧向右出发一条正交的折线，转一圈到 > 下面 -->
  <path d="M 8.32 4.4 L 10.56 4.4 L 10.56 9.2 L 5.76 9.2 L 5.76 7.6" fill="none" stroke="currentColor" stroke-width="1.2" stroke-linecap="round" stroke-linejoin="round"/>
</svg>